<svg xmlns="http://www.w3.org/2000/svg" xmlns:xlink="http://www.w3.org/1999/xlink" preserveAspectRatio="xMidYMid" width="26" height="26" viewBox="0 0 26 26">
  <defs>
    <style>
      .cls-1 {
        fill: #94c4db;
        fill-rule: evenodd;
      }
    </style>
  </defs>
  <path d="M7.000,5.999 L7.000,5.999 C6.448,5.999 6.000,5.552 6.000,4.999 L6.000,0.999 C6.000,0.447 6.448,-0.001 7.000,-0.001 L7.000,-0.001 C7.552,-0.001 8.000,0.447 8.000,0.999 L8.000,4.999 C8.000,5.552 7.552,5.999 7.000,5.999 ZM20.000,4.999 L20.000,0.999 C20.000,0.447 19.552,-0.001 19.000,-0.001 L19.000,-0.001 C18.448,-0.001 18.000,0.447 18.000,0.999 L18.000,4.999 C18.000,5.552 18.448,5.999 19.000,5.999 L19.000,5.999 C19.552,5.999 20.000,5.552 20.000,4.999 ZM26.000,5.082 L26.000,22.915 C26.000,24.619 24.619,25.998 22.916,25.998 L3.083,25.998 C1.380,25.998 -0.000,24.619 -0.000,22.915 L-0.000,5.082 C-0.000,3.380 1.380,1.999 3.083,1.999 L4.000,1.999 L4.000,4.999 C4.000,6.656 5.343,7.999 7.000,7.999 C8.657,7.999 10.000,6.656 10.000,4.999 L10.000,1.999 L16.000,1.999 L16.000,4.999 C16.000,6.656 17.343,7.999 19.000,7.999 C20.657,7.999 22.000,6.656 22.000,4.999 L22.000,1.999 L22.916,1.999 C24.619,1.999 26.000,3.380 26.000,5.082 ZM24.000,9.999 L2.000,9.999 L2.000,21.999 L24.000,21.999 L24.000,9.999 ZM6.000,11.999 L4.000,11.999 L4.000,13.999 L6.000,13.999 L6.000,11.999 ZM6.000,15.999 L4.000,15.999 L4.000,17.999 L6.000,17.999 L6.000,15.999 ZM10.000,11.999 L8.000,11.999 L8.000,13.999 L10.000,13.999 L10.000,11.999 ZM10.000,15.999 L8.000,15.999 L8.000,17.999 L10.000,17.999 L10.000,15.999 ZM14.000,11.999 L12.000,11.999 L12.000,13.999 L14.000,13.999 L14.000,11.999 ZM14.000,15.999 L12.000,15.999 L12.000,17.999 L14.000,17.999 L14.000,15.999 ZM18.000,11.999 L16.000,11.999 L16.000,13.999 L18.000,13.999 L18.000,11.999 ZM22.000,11.999 L20.000,11.999 L20.000,13.999 L22.000,13.999 L22.000,11.999 ZM18.000,15.999 L16.000,15.999 L16.000,17.999 L18.000,17.999 L18.000,15.999 Z" class="cls-1"/>
</svg>
