<svg xmlns="http://www.w3.org/2000/svg" xmlns:xlink="http://www.w3.org/1999/xlink" preserveAspectRatio="xMidYMid" width="18" height="18" viewBox="0 0 18 18">
  <defs>
    <style>
      .cls-1 {
        fill: #fff;
        fill-rule: evenodd;
      }
    </style>
  </defs>
  <path d="M11.078,13.890 C7.249,13.877 4.152,10.756 4.157,6.913 C4.175,3.078 7.288,-0.017 11.110,0.001 C14.933,0.019 18.017,3.142 17.999,6.978 C17.981,10.800 14.888,13.890 11.078,13.890 ZM11.078,1.971 C8.368,1.983 6.180,4.194 6.186,6.913 L6.188,6.913 C6.206,9.624 8.410,11.807 11.112,11.789 C13.814,11.771 15.990,9.559 15.972,6.848 C15.954,4.148 13.768,1.970 11.078,1.971 ZM5.808,13.632 L1.432,17.999 L-0.001,16.557 L4.377,12.190 L5.808,13.632 Z" class="cls-1"/>
</svg>
