<svg xmlns="http://www.w3.org/2000/svg" xmlns:xlink="http://www.w3.org/1999/xlink" preserveAspectRatio="xMidYMid" width="11.72" height="15" viewBox="0 0 11.72 15">
  <defs>
    <style>
      .cls-1 {
        fill: #a8d5eb;
        fill-rule: evenodd;
      }
    </style>
  </defs>
  <path d="M5.860,6.918 C7.521,6.918 8.867,5.266 8.867,3.227 C8.867,1.189 7.521,-0.002 5.860,-0.002 C4.199,-0.002 2.853,1.189 2.853,3.227 C2.853,5.265 4.199,6.918 5.860,6.918 ZM11.699,12.134 C11.406,9.455 8.942,8.503 5.945,8.503 C5.916,8.503 5.888,8.504 5.860,8.505 C5.831,8.504 5.804,8.503 5.774,8.503 C2.777,8.503 0.313,9.455 0.021,12.134 C0.013,12.203 0.006,12.789 0.000,13.106 C1.614,14.341 3.574,15.001 5.859,15.001 C8.120,15.001 10.112,14.316 11.719,13.106 C11.714,12.789 11.706,12.203 11.699,12.134 Z" class="cls-1"/>
</svg>
