<svg xmlns="http://www.w3.org/2000/svg" xmlns:xlink="http://www.w3.org/1999/xlink" preserveAspectRatio="xMidYMid" width="29.812" height="15.906" viewBox="0 0 29.812 15.906">
  <defs>
    <style>
      .cls-1 {
        fill: #fff;
        fill-rule: evenodd;
      }
    </style>
  </defs>
  <path d="M12.909,5.954 L26.415,5.954 L24.129,8.231 C23.742,8.619 23.742,9.256 24.129,9.644 C24.328,9.832 24.576,9.932 24.835,9.932 C25.093,9.932 25.342,9.832 25.540,9.644 L29.516,5.666 C29.903,5.278 29.903,4.641 29.516,4.253 L25.540,0.275 C25.153,-0.112 24.517,-0.112 24.129,0.275 C23.742,0.663 23.742,1.300 24.129,1.688 L26.415,3.965 L12.909,3.965 C12.363,3.965 11.916,4.413 11.916,4.960 C11.916,5.507 12.363,5.954 12.909,5.954 ZM4.253,15.611 C4.452,15.799 4.701,15.899 4.959,15.899 C5.217,15.899 5.466,15.799 5.665,15.611 C6.052,15.223 6.052,14.586 5.665,14.198 L3.379,11.921 L16.885,11.921 C17.431,11.921 17.878,11.473 17.878,10.926 C17.878,10.379 17.431,9.932 16.885,9.932 L3.379,9.932 L5.665,7.654 C6.052,7.267 6.052,6.631 5.665,6.242 C5.277,5.855 4.641,5.855 4.253,6.242 L0.278,10.221 C-0.109,10.608 -0.109,11.244 0.278,11.633 L4.253,15.611 Z" class="cls-1"/>
</svg>
