<svg style="display: none" xmlns="http://www.w3.org/2000/svg"><defs> <style> .cls-1 { fill: #94c4db; fill-rule: evenodd; } </style>  <style> .cls-1 { fill: #a8d5eb; fill-rule: evenodd; } </style>  <style> .cls-1 { fill: #fff; fill-rule: evenodd; } </style>  <style> .cls-1 { fill: #fff; fill-rule: evenodd; } </style> </defs><symbol viewBox="0 0 26 26" id="icon-calendar"><title>icon-calendar</title>  <path d="M7.000,5.999 L7.000,5.999 C6.448,5.999 6.000,5.552 6.000,4.999 L6.000,0.999 C6.000,0.447 6.448,-0.001 7.000,-0.001 L7.000,-0.001 C7.552,-0.001 8.000,0.447 8.000,0.999 L8.000,4.999 C8.000,5.552 7.552,5.999 7.000,5.999 ZM20.000,4.999 L20.000,0.999 C20.000,0.447 19.552,-0.001 19.000,-0.001 L19.000,-0.001 C18.448,-0.001 18.000,0.447 18.000,0.999 L18.000,4.999 C18.000,5.552 18.448,5.999 19.000,5.999 L19.000,5.999 C19.552,5.999 20.000,5.552 20.000,4.999 ZM26.000,5.082 L26.000,22.915 C26.000,24.619 24.619,25.998 22.916,25.998 L3.083,25.998 C1.380,25.998 -0.000,24.619 -0.000,22.915 L-0.000,5.082 C-0.000,3.380 1.380,1.999 3.083,1.999 L4.000,1.999 L4.000,4.999 C4.000,6.656 5.343,7.999 7.000,7.999 C8.657,7.999 10.000,6.656 10.000,4.999 L10.000,1.999 L16.000,1.999 L16.000,4.999 C16.000,6.656 17.343,7.999 19.000,7.999 C20.657,7.999 22.000,6.656 22.000,4.999 L22.000,1.999 L22.916,1.999 C24.619,1.999 26.000,3.380 26.000,5.082 ZM24.000,9.999 L2.000,9.999 L2.000,21.999 L24.000,21.999 L24.000,9.999 ZM6.000,11.999 L4.000,11.999 L4.000,13.999 L6.000,13.999 L6.000,11.999 ZM6.000,15.999 L4.000,15.999 L4.000,17.999 L6.000,17.999 L6.000,15.999 ZM10.000,11.999 L8.000,11.999 L8.000,13.999 L10.000,13.999 L10.000,11.999 ZM10.000,15.999 L8.000,15.999 L8.000,17.999 L10.000,17.999 L10.000,15.999 ZM14.000,11.999 L12.000,11.999 L12.000,13.999 L14.000,13.999 L14.000,11.999 ZM14.000,15.999 L12.000,15.999 L12.000,17.999 L14.000,17.999 L14.000,15.999 ZM18.000,11.999 L16.000,11.999 L16.000,13.999 L18.000,13.999 L18.000,11.999 ZM22.000,11.999 L20.000,11.999 L20.000,13.999 L22.000,13.999 L22.000,11.999 ZM18.000,15.999 L16.000,15.999 L16.000,17.999 L18.000,17.999 L18.000,15.999 Z" class="cls-1"/> </symbol><symbol viewBox="0 0 11.72 15" id="icon-login"><title>icon-login</title>  <path d="M5.860,6.918 C7.521,6.918 8.867,5.266 8.867,3.227 C8.867,1.189 7.521,-0.002 5.860,-0.002 C4.199,-0.002 2.853,1.189 2.853,3.227 C2.853,5.265 4.199,6.918 5.860,6.918 ZM11.699,12.134 C11.406,9.455 8.942,8.503 5.945,8.503 C5.916,8.503 5.888,8.504 5.860,8.505 C5.831,8.504 5.804,8.503 5.774,8.503 C2.777,8.503 0.313,9.455 0.021,12.134 C0.013,12.203 0.006,12.789 0.000,13.106 C1.614,14.341 3.574,15.001 5.859,15.001 C8.120,15.001 10.112,14.316 11.719,13.106 C11.714,12.789 11.706,12.203 11.699,12.134 Z" class="cls-1"/> </symbol><symbol viewBox="0 0 18 18" id="icon-search"><title>icon-search</title>  <path d="M11.078,13.890 C7.249,13.877 4.152,10.756 4.157,6.913 C4.175,3.078 7.288,-0.017 11.110,0.001 C14.933,0.019 18.017,3.142 17.999,6.978 C17.981,10.800 14.888,13.890 11.078,13.890 ZM11.078,1.971 C8.368,1.983 6.180,4.194 6.186,6.913 L6.188,6.913 C6.206,9.624 8.410,11.807 11.112,11.789 C13.814,11.771 15.990,9.559 15.972,6.848 C15.954,4.148 13.768,1.970 11.078,1.971 ZM5.808,13.632 L1.432,17.999 L-0.001,16.557 L4.377,12.190 L5.808,13.632 Z" class="cls-1"/> </symbol><symbol viewBox="0 0 29.812 15.906" id="icon-swap"><title>icon-swap</title>  <path d="M12.909,5.954 L26.415,5.954 L24.129,8.231 C23.742,8.619 23.742,9.256 24.129,9.644 C24.328,9.832 24.576,9.932 24.835,9.932 C25.093,9.932 25.342,9.832 25.540,9.644 L29.516,5.666 C29.903,5.278 29.903,4.641 29.516,4.253 L25.540,0.275 C25.153,-0.112 24.517,-0.112 24.129,0.275 C23.742,0.663 23.742,1.300 24.129,1.688 L26.415,3.965 L12.909,3.965 C12.363,3.965 11.916,4.413 11.916,4.960 C11.916,5.507 12.363,5.954 12.909,5.954 ZM4.253,15.611 C4.452,15.799 4.701,15.899 4.959,15.899 C5.217,15.899 5.466,15.799 5.665,15.611 C6.052,15.223 6.052,14.586 5.665,14.198 L3.379,11.921 L16.885,11.921 C17.431,11.921 17.878,11.473 17.878,10.926 C17.878,10.379 17.431,9.932 16.885,9.932 L3.379,9.932 L5.665,7.654 C6.052,7.267 6.052,6.631 5.665,6.242 C5.277,5.855 4.641,5.855 4.253,6.242 L0.278,10.221 C-0.109,10.608 -0.109,11.244 0.278,11.633 L4.253,15.611 Z" class="cls-1"/> </symbol></svg>